<?xml version="1.0" encoding="utf-8"?>
<svg width="2400" height="2400" viewBox="0 0 162 142.678" xmlns="http://www.w3.org/2000/svg">
  <g transform="matrix(1.8, 0, 0, 1.8, -364.577789, -309.89621)">
    <g transform="scale(0.15) translate(1350.28803507487 1111.5647538503008)">
      <path
          d="M600,244.086L494.637,356.374c-5.374-8.574-9.924-20.854-14.297-37.076l71.986-76.716l-65.429-79.194    c-15.395-1.772-30.783-3.322-46.147-4.671c1.865-7.281,2.885-15.003,2.885-23.012c0-4.342-0.373-8.572-0.939-12.724    c20.813,1.817,41.696,3.972,62.672,6.561L600,244.086z M488.261,378.888c1.075,7.043,0.237,14.284-2.579,20.513    c-4.338,9.675-13.016,16.573-24.427,19.351c-1.735,0.434-3.688,0.911-5.727,1.388c-6.753,1.573-14.995,3.512-24.025,6.453    c-14.431,4.7-30.886,12.043-46.644,24.677c8.188-3.973,21.188-7.618,29.959-9.83L300,563.803L0,244.086l86.157-104.284    c0.668,15.446,5.035,29.697,12.119,41.531l-50.602,61.249l79.528,84.755c5.435-1.32,11.521-2.129,18.41-2.129    c14.361,0,30.545,3.514,48.204,10.499c22.214-35.491,53.235-43.343,76.274-43.343c6.595,0,13.407,0.65,20.393,1.909    c-6.726-19.524-5.293-40.176-3.949-59.267c0.099-1.383,0.195-2.761,0.29-4.137c-7.892-2.855-15.292-7.046-22.016-12.349    c-12.207,9.627-26.647,15.598-42.195,16.554v0.139h-35.956v-0.139c-18.291-1.125-35.046-9.19-48.437-21.988    c-0.767-0.356-1.531-0.72-2.284-1.107c-24.953-12.817-42.448-42.175-42.448-76.274c0-34.099,17.496-63.457,42.448-76.273    c0.753-0.387,1.517-0.75,2.284-1.107c13.391-12.797,30.146-20.863,48.437-21.987v-0.139h35.956v0.139    c15.548,0.956,29.988,6.926,42.195,16.554c12.208-9.627,26.648-15.598,42.196-16.554v-0.139h35.956v0.139    c18.29,1.125,35.045,9.189,48.435,21.986c0.769,0.357,1.533,0.721,2.288,1.109c24.952,12.817,42.445,42.175,42.445,76.273    c0,23.167-8.081,44.143-21.081,59.237c0.778,1.159,1.549,2.326,2.316,3.502c12.391,18.987,23.336,40.229,31.136,63.636    c7.579,22.734,13.103,39.709,17.229,52.566c3.196,9.963,5.553,17.454,7.371,23.231c5.944,18.96,5.944,18.96,11.15,28.766    C486.273,370.476,487.613,374.646,488.261,378.888z M393.309,212.178c4.807,5.829,9.23,11.655,13.148,17.23    c-0.477-1.302-0.955-2.646-1.432-3.862c-1.951-5.395-4.256-10.759-6.846-16.113C396.588,210.415,394.967,211.339,393.309,212.178z     M352.894,135.704c0,7.982,5.13,14.478,11.438,14.478h11.051c-2.646-4.037-4.236-9.042-4.236-14.478    c0-5.436,1.59-10.44,4.236-14.477h-11.051C358.023,121.228,352.894,127.721,352.894,135.704z M276.896,135.704    c0,38.943,24.993,70.922,56.649,74.001c-22.771-13.8-38.396-41.78-38.396-74.001c0-32.221,15.625-60.199,38.396-74    C301.888,64.784,276.896,96.763,276.896,135.704z M117.965,184.973c-7.043-14.539-11.093-31.351-11.093-49.269    s4.049-34.73,11.093-49.268c-9.685,13.13-15.625,30.358-15.625,49.268C102.34,154.615,108.28,171.843,117.965,184.973z     M182.365,225.735c-28.567-15.936-48.389-50.293-48.389-90.031c0-39.737,19.822-74.094,48.389-90.03    c-37.46,5.218-66.642,43.591-66.642,90.03C115.724,182.144,144.905,220.518,182.365,225.735z M174.149,170.584l0.037,0.012    c-0.016-0.023-0.032-0.046-0.047-0.07L174.149,170.584z M232.567,170.569c-3.449-10.857-5.348-22.603-5.348-34.865    c0-16.381,3.388-31.836,9.348-45.478c-10.252-0.999-18.275-1.609-20.494-1.609c-6.985,0-36.358,17.962-42.042,26.249    c-5.684,8.331-2.169,30.241,13.146,51.675c0.434,0.086,0.912,0.173,1.345,0.26c4.208-1.562-1.214-32.497-3.297-47.9    c9.198,25.165,13.146,49.722,21.563,50.416h0.043c8.417,0.651,1.345-22.171,0.217-41.391c11.28,21.78,13.189,41.131,19.828,42.563    C229.021,170.527,230.939,170.561,232.567,170.569z M302.713,225.735c-28.568-15.936-48.39-50.293-48.39-90.031    c0-39.737,19.822-74.094,48.39-90.03c-37.46,5.218-66.642,43.591-66.642,90.03C236.071,182.144,265.252,220.518,302.713,225.735z     M142.045,343.155l30.229,32.216c2.494-11.144,5.911-21.311,11.042-29.641c-7.159-2.561-13.797-4.426-19.828-5.641    C153.147,338.394,146.942,339.835,142.045,343.155z M413.66,268.283c-4.783-9.235-9.951-18.902-15.18-28.354    c-4.201-7.593-8.441-15.042-12.557-22.019c-12.368,9.987-27.09,16.188-42.964,17.164v0.139h-24.27    c2.286,8.326,5.149,15.489,8.333,21.437c5.461,10.206,11.806,16.928,17.563,20.138c-11.098-3.789-19.153-11.009-24.874-18.428    c-1.615-2.095-3.074-4.205-4.326-6.259c0,2.475,0.061,4.876,0.143,7.238c0.048,1.406,0.097,2.813,0.162,4.172    c2.039,37.964,55.058,72.544,88.986,76.666c-12.93,5.336-25.686,5.38-37.139,2.819c3.428,4.859,6.725,10.587,9.284,17.398    c-35.882-29.634-66.513-36.142-117.493-42.997c16.575-4.035,29.634-6.941,42.173-7.071c-10.326-3.081-20.913-4.946-31.413-4.946    c-27.203,0-53.366,12.278-70.634,46.858c-3.991,8.33-7.115,16.183-9.632,23.732c6.335-12.062,15.489-25.251,28.636-35.794    c0,0-15.218,36.754-18.506,64.692l4.497,4.792c15.151-2.425,62.047-10.887,99.699-27.92c0,0-27.05,36.375-66.893,62.882l4.627,4.932    c11.104-4.104,22.98-9.133,35.236-15.357c-0.396,0.755-6.228,11.05-26.99,24.146l5.605,5.973    c30.706-5.744,80.859-22.33,106.424-53.896c-12.669-3.211-26.424-5.293-40.09-4.815c24.677-6.721,50.084-8.859,72.195-10.6    c5.297-0.417,10.462-0.817,15.316-1.245c18.137-1.563,45.21-17.528,11.021-33.365c10.729,2.777,16.417-1.226,18.133-9.839    C441.922,334.544,431.348,302.56,413.66,268.283z"
          fill="#C8FF4A" fill-opacity="1" />
    </g>
  </g>
</svg>